# xmcd
#
# Track frame offsets:
# 150
# 24367
# 40312
# 52906
# 69209
# 84900
# 96129
# 115278
# 127298
# 138861
# 153024
# 168051
# 180188
# 193063
# 209525
# 225145
# 243776
# 263751
#
# Disc length: 3712 seconds
#
#
# Revision: 1
# Processed by: cddbd v1.5.1PL0 Copyright (c) Steve Scherf et al.
# Submitted via: FreeRIP 2.30 
#
DISCID=d60e7e12
DTITLE=Varios Artistas - Canta meu Brasil - Volumen I
DYEAR=2002
DGENRE=Blues
TTITLE0=The girl from ipanema
TTITLE1=Águas de Março
TTITLE2=O que sera (A flor da terra)
TTITLE3=Você abusou
TTITLE4=Cachaça mecânica
TTITLE5=Corcovado
TTITLE6=Aquarela
TTITLE7=Mais que nada
TTITLE8=Canta canta minha gente
TTITLE9=Balancê
TTITLE10=Esta noite eu queria que o mundo acabasse
TTITLE11=Carta ao tom 74
TTITLE12=Sonho meu
TTITLE13=Tropicália
TTITLE14=Tereza sabe sambar
TTITLE15=Que quara qua qua
TTITLE16=Samba da bênção
TTITLE17=Wave
EXTD=YEAR: 2002 ID3G: 0
EXTT0=
EXTT1=
EXTT2=
EXTT3=
EXTT4=
EXTT5=
EXTT6=
EXTT7=
EXTT8=
EXTT9=
EXTT10=
EXTT11=
EXTT12=
EXTT13=
EXTT14=
EXTT15=
EXTT16=
EXTT17=
PLAYORDER=
